<svg width="28" height="22" viewBox="0 0 28 22" fill="none" xmlns="http://www.w3.org/2000/svg">
<path d="M3.03175 10.7819C2.82527 9.85725 3.65214 9 4.75055 9H23.8505C24.9489 9 25.7758 9.85725 25.5693 10.7819L23.783 18.7819C23.6252 19.4888 22.9039 20 22.0642 20H6.53683C5.69718 20 4.97587 19.4888 4.81803 18.7819L3.03175 10.7819Z" fill="#FF6600" stroke="#FF6600" stroke-width="4" stroke-linejoin="round"/>
<path d="M14.3003 2L9.05029 9H19.5503L14.3003 2Z" stroke="#FF6600" stroke-width="4" stroke-linecap="round" stroke-linejoin="round"/>
<path d="M14.3003 16C15.2668 16 16.0503 15.3284 16.0503 14.5C16.0503 13.6716 15.2668 13 14.3003 13C13.3338 13 12.5503 13.6716 12.5503 14.5C12.5503 15.3284 13.3338 16 14.3003 16Z" fill="#FF6600" stroke="white" stroke-width="4"/>
</svg>
