<svg width="26" height="26" viewBox="0 0 26 26" fill="none" xmlns="http://www.w3.org/2000/svg">
<path d="M12.9173 25.1698C20.0513 25.1698 25.8345 19.5354 25.8345 12.5849C25.8345 5.63445 20.0513 0 12.9173 0C5.78326 0 0 5.63445 0 12.5849C0 19.5354 5.78326 25.1698 12.9173 25.1698Z" fill="white"/>
<path d="M15.6615 5.59326H10.1789C7.73321 5.59326 5.74683 7.52854 5.74683 9.91128V15.2529C5.74683 17.6356 7.73321 19.5709 10.1789 19.5709H15.6615C18.1072 19.5709 20.0936 17.6356 20.0936 15.2529V9.91128C20.0936 7.52854 18.1072 5.59326 15.6615 5.59326ZM18.4919 15.2585C18.4919 16.7798 17.2231 18.0216 15.6558 18.0216H10.1731C8.61159 18.0216 7.33709 16.7854 7.33709 15.2585V9.91688C7.33709 8.3955 8.60585 7.15379 10.1731 7.15379H15.6558C17.2174 7.15379 18.4919 8.38991 18.4919 9.91688V15.2585Z" fill="#3B5999"/>
<path d="M12.9175 9.01074C10.8967 9.01074 9.24902 10.616 9.24902 12.5849C9.24902 14.5537 10.8967 16.159 12.9175 16.159C14.9384 16.159 16.586 14.5537 16.586 12.5849C16.586 10.616 14.9384 9.01074 12.9175 9.01074ZM12.9175 14.7551C11.689 14.7551 10.69 13.7818 10.69 12.5849C10.69 11.3879 11.689 10.4147 12.9175 10.4147C14.1461 10.4147 15.145 11.3879 15.145 12.5849C15.145 13.7818 14.1461 14.7551 12.9175 14.7551Z" fill="#3B5999"/>
<path d="M16.8653 9.40268C17.2033 9.3493 17.4329 9.03909 17.3781 8.7098C17.3233 8.38052 17.0049 8.15685 16.6669 8.21023C16.3289 8.26361 16.0993 8.57382 16.1541 8.90311C16.2089 9.23239 16.5273 9.45606 16.8653 9.40268Z" fill="#3B5999"/>
</svg>
