<svg width="23" height="27" viewBox="0 0 23 27" fill="none" xmlns="http://www.w3.org/2000/svg">
<path d="M12.6582 8V0.5H4.90821C4.22307 0.5 3.56599 0.763392 3.08152 1.23223C2.59705 1.70107 2.32488 2.33696 2.32488 3V9.62875C3.8006 8.80338 5.51631 8.47182 7.20641 8.6854C8.89651 8.89899 10.4667 9.6458 11.6739 10.8102C12.8811 11.9747 13.658 13.4917 13.8843 15.1266C14.1106 16.7615 13.7736 18.4229 12.9256 19.8538L17.4852 24.2663C17.8443 24.6125 18.0574 25.0487 18.1245 25.5H20.4082C21.0934 25.5 21.7504 25.2366 22.2349 24.7678C22.7194 24.2989 22.9915 23.663 22.9915 23V10.5H15.2415C14.5564 10.5 13.8993 10.2366 13.4149 9.76777C12.9304 9.29893 12.6582 8.66304 12.6582 8ZM15.2028 26.475C15.2915 26.5671 15.3984 26.641 15.5173 26.6922C15.6361 26.7435 15.7644 26.771 15.8945 26.7732C16.0245 26.7755 16.1537 26.7523 16.2744 26.7052C16.395 26.658 16.5046 26.5878 16.5966 26.4988C16.6885 26.4098 16.7611 26.3037 16.8098 26.187C16.8585 26.0703 16.8824 25.9452 16.8801 25.8193C16.8778 25.6935 16.8494 25.5693 16.7964 25.4543C16.7435 25.3393 16.6671 25.2358 16.572 25.15L11.2606 20.0088C12.1679 18.9049 12.6607 17.5355 12.6582 16.125C12.6602 14.4885 11.9967 12.917 10.8111 11.75C10.2106 11.1556 9.49326 10.6835 8.70132 10.3615C7.90939 10.0395 7.05888 9.87407 6.19988 9.875C4.80216 9.87301 3.44183 10.3118 2.32488 11.125C0.965532 12.102 0.0570527 13.5566 -0.204923 15.1755C-0.466899 16.7944 -0.0614147 18.4481 0.924213 19.7806C1.90984 21.113 3.39676 22.0175 5.06479 22.2994C6.73281 22.5812 8.44849 22.2178 9.84238 21.2875L15.2028 26.475ZM6.19988 11.75C6.79357 11.75 7.38144 11.8632 7.92993 12.083C8.47842 12.3029 8.97679 12.6252 9.39659 13.0314C9.81639 13.4377 10.1494 13.92 10.3766 14.4508C10.6038 14.9816 10.7207 15.5505 10.7207 16.125C10.7207 16.6995 10.6038 17.2684 10.3766 17.7992C10.1494 18.33 9.81639 18.8123 9.39659 19.2186C8.97679 19.6248 8.47842 19.9471 7.92993 20.167C7.38144 20.3868 6.79357 20.5 6.19988 20.5C5.00088 20.5 3.85099 20.0391 3.00317 19.2186C2.15535 18.3981 1.67905 17.2853 1.67905 16.125C1.67905 14.9647 2.15535 13.8519 3.00317 13.0314C3.85099 12.2109 5.00088 11.75 6.19988 11.75ZM14.5957 8V1.125L22.3457 8.625H15.2415C15.0703 8.625 14.906 8.55915 14.7849 8.44194C14.6638 8.32473 14.5957 8.16576 14.5957 8Z" fill="#FF5600"/>
</svg>
