<svg width="44" height="33" viewBox="0 0 44 33" fill="none" xmlns="http://www.w3.org/2000/svg">
<path d="M22 9.9C20.4087 9.9 18.8826 10.5954 17.7574 11.8331C16.6321 13.0708 16 14.7496 16 16.5C16 18.2504 16.6321 19.9292 17.7574 21.1669C18.8826 22.4046 20.4087 23.1 22 23.1C23.5913 23.1 25.1174 22.4046 26.2426 21.1669C27.3679 19.9292 28 18.2504 28 16.5C28 14.7496 27.3679 13.0708 26.2426 11.8331C25.1174 10.5954 23.5913 9.9 22 9.9ZM22 27.5C19.3478 27.5 16.8043 26.3411 14.9289 24.2782C13.0536 22.2153 12 19.4174 12 16.5C12 13.5826 13.0536 10.7847 14.9289 8.72183C16.8043 6.65893 19.3478 5.5 22 5.5C24.6522 5.5 27.1957 6.65893 29.0711 8.72183C30.9464 10.7847 32 13.5826 32 16.5C32 19.4174 30.9464 22.2153 29.0711 24.2782C27.1957 26.3411 24.6522 27.5 22 27.5ZM22 0C12 0 3.46 6.842 0 16.5C3.46 26.158 12 33 22 33C32 33 40.54 26.158 44 16.5C40.54 6.842 32 0 22 0Z" fill="#FF5600"/>
</svg>
