<svg width="46" height="47" viewBox="0 0 46 47" fill="none" xmlns="http://www.w3.org/2000/svg">
<path d="M36.4279 37.3456C33.9285 37.3456 31.9245 39.3987 31.9245 41.9592C31.9245 43.1828 32.399 44.3563 33.2435 45.2215C34.0881 46.0867 35.2335 46.5728 36.4279 46.5728C37.6222 46.5728 38.7676 46.0867 39.6122 45.2215C40.4567 44.3563 40.9312 43.1828 40.9312 41.9592C40.9312 40.7356 40.4567 39.5621 39.6122 38.6969C38.7676 37.8317 37.6222 37.3456 36.4279 37.3456ZM0.401367 0.437012V5.05059H4.90468L13.0106 22.5591L9.94839 28.2108C9.61064 28.8567 9.40799 29.6179 9.40799 30.4253C9.40799 31.6489 9.88244 32.8224 10.727 33.6876C11.5715 34.5528 12.7169 35.0389 13.9113 35.0389H40.9312V30.4253H14.857C14.7077 30.4253 14.5645 30.3645 14.459 30.2564C14.3534 30.1482 14.2941 30.0015 14.2941 29.8486C14.2941 29.7332 14.3166 29.641 14.3616 29.5718L16.3881 25.8117H33.163C34.8517 25.8117 36.3378 24.8428 37.1034 23.4357L45.1643 8.51078C45.3219 8.14169 45.4345 7.74954 45.4345 7.35738C45.4345 6.74558 45.1973 6.15884 44.775 5.72623C44.3527 5.29363 43.78 5.05059 43.1828 5.05059H9.88084L7.76428 0.437012M13.9113 37.3456C11.412 37.3456 9.40799 39.3987 9.40799 41.9592C9.40799 43.1828 9.88244 44.3563 10.727 45.2215C11.5715 46.0867 12.7169 46.5728 13.9113 46.5728C15.1057 46.5728 16.2511 46.0867 17.0956 45.2215C17.9402 44.3563 18.4146 43.1828 18.4146 41.9592C18.4146 40.7356 17.9402 39.5621 17.0956 38.6969C16.2511 37.8317 15.1057 37.3456 13.9113 37.3456Z" fill="#FF5600"/>
</svg>
