<svg width="10" height="15" viewBox="0 0 10 15" fill="none" xmlns="http://www.w3.org/2000/svg">
<path d="M9.57527 6.7883C9.29951 6.05574 8.89863 5.39824 8.39772 4.85692L7.98437 4.40929C7.97033 4.3945 7.95344 4.38401 7.93517 4.37874C7.9169 4.37346 7.89781 4.37355 7.87958 4.37902C7.86135 4.38448 7.84453 4.39514 7.8306 4.41006C7.81668 4.42499 7.80607 4.44372 7.79971 4.46461L7.61505 5.08996C7.49999 5.48227 7.28834 5.88297 6.98863 6.27695C6.96874 6.3021 6.94602 6.30881 6.93039 6.31048C6.91477 6.31216 6.89062 6.30881 6.86931 6.28534C6.84942 6.26522 6.83948 6.23504 6.8409 6.20486C6.89346 5.19558 6.63778 4.05721 6.07812 2.81825C5.61505 1.78885 4.97159 0.985787 4.16761 0.425822L3.58096 0.0184221C3.50426 -0.0352273 3.40625 0.0351874 3.41051 0.14081L3.44176 0.94555C3.46306 1.49546 3.40909 1.98165 3.28125 2.3857C3.125 2.88028 2.90057 3.33965 2.61363 3.75208C2.41395 4.03871 2.18763 4.29796 1.93892 4.52497C1.33992 5.06844 0.852859 5.76483 0.514204 6.56197C0.176383 7.36606 0.00041216 8.25135 0 9.14887C0 9.9402 0.132102 10.7064 0.393465 11.429C0.645832 12.1247 1.01003 12.7561 1.46591 13.2883C1.92613 13.8247 2.46022 14.2472 3.05539 14.5406C3.67187 14.8458 4.32528 15 4.99999 15C5.67471 15 6.32812 14.8458 6.9446 14.5423C7.5383 14.2506 8.07818 13.8252 8.53408 13.2899C8.99431 12.7534 9.3551 12.1264 9.60652 11.4306C9.86749 10.71 10.0014 9.93423 9.99999 9.15055C9.99999 8.33239 9.85794 7.53771 9.57527 6.7883Z" fill="#FF5600"/>
</svg>
