<svg width="139" height="46" viewBox="0 0 139 46" fill="none" xmlns="http://www.w3.org/2000/svg">
<path d="M138.228 40.0937C138.228 42.5088 136.458 44.4652 134.269 44.4652H4.73547C2.54782 44.4652 0.772095 42.5088 0.772095 40.0937V5.23221C0.772095 2.81817 2.54782 0.85498 4.73547 0.85498H134.268C136.458 0.85498 138.227 2.81817 138.227 5.23221L138.228 40.0937Z" fill="black"/>
<path d="M133.852 0.907749C136.235 0.907749 138.175 3.04206 138.175 5.66497V39.6553C138.175 42.2782 136.235 44.4125 133.852 44.4125H5.14815C2.76456 44.4125 0.82499 42.2782 0.82499 39.6553V5.66497C0.82499 3.04206 2.76456 0.907749 5.14815 0.907749H133.852ZM133.852 -7.57935e-05H5.14815C2.31795 -7.57935e-05 0 2.55061 0 5.66497V39.6553C0 42.7696 2.31795 45.3203 5.14815 45.3203H133.852C136.682 45.3203 139 42.7696 139 39.6553V5.66497C139 2.55061 136.682 -7.57935e-05 133.852 -7.57935e-05Z" fill="#A6A6A6"/>
<path d="M31.0207 22.4155C30.9908 18.7638 33.7379 16.9872 33.8635 16.9045C32.3077 14.4085 29.8963 14.0675 29.0489 14.0403C27.0236 13.8057 25.0591 15.3738 24.0274 15.3738C22.9751 15.3738 21.3864 14.0629 19.6741 14.1015C17.4707 14.1389 15.4094 15.5426 14.2789 17.7226C11.9457 22.1674 13.6858 28.6992 15.9211 32.2919C17.0393 34.0515 18.3459 36.0161 20.0561 35.947C21.7293 35.8711 22.3543 34.7732 24.3734 34.7732C26.3739 34.7732 26.9608 35.947 28.705 35.9028C30.5007 35.8711 31.6312 34.1353 32.7103 32.3599C34.0025 30.3432 34.5214 28.357 34.542 28.255C34.4998 28.2392 31.0546 26.7923 31.0207 22.4155Z" fill="white"/>
<path d="M27.7258 11.6768C28.6257 10.4384 29.2415 8.75366 29.0705 7.04395C27.7681 7.10739 26.1392 8.03533 25.2012 9.24652C24.3713 10.3138 23.63 12.0632 23.8215 13.7083C25.2846 13.8284 26.7868 12.8959 27.7258 11.6768Z" fill="white"/>
<path d="M55.2344 35.6941H52.8961L51.6152 31.2651H47.1631L45.943 35.6941H43.6665L48.0774 20.616H50.8018L55.2344 35.6941ZM51.2291 29.407L50.0708 25.4698C49.9483 25.0676 49.7187 24.1204 49.3799 22.6293H49.3387C49.2038 23.2706 48.9866 24.2178 48.688 25.4698L47.5503 29.407H51.2291Z" fill="white"/>
<path d="M66.5778 30.1243C66.5778 31.9734 66.1237 33.435 65.2156 34.5079C64.4022 35.4631 63.3921 35.9401 62.1864 35.9401C60.885 35.9401 59.9501 35.4257 59.3807 34.3969H59.3395V40.1243H57.1443V28.401C57.1443 27.2385 57.1165 26.0455 57.063 24.8218H58.9935L59.1161 26.5451H59.1573C59.8893 25.2467 61.0003 24.5986 62.4912 24.5986C63.6567 24.5986 64.6297 25.1051 65.4081 26.1191C66.1886 27.1343 66.5778 28.469 66.5778 30.1243ZM64.3414 30.2127C64.3414 29.1545 64.1252 28.282 63.6907 27.5954C63.2161 26.8794 62.5787 26.5214 61.7797 26.5214C61.2381 26.5214 60.746 26.7208 60.3063 27.1139C59.8656 27.5105 59.5773 28.0283 59.4425 28.6695C59.3745 28.9687 59.3405 29.2134 59.3405 29.406V31.2188C59.3405 32.0097 59.5609 32.677 60.0016 33.222C60.4422 33.7669 61.0147 34.0389 61.719 34.0389C62.5458 34.0389 63.1893 33.6876 63.6495 32.9874C64.1108 32.2861 64.3414 31.3616 64.3414 30.2127Z" fill="white"/>
<path d="M77.9419 30.1243C77.9419 31.9734 77.4878 33.435 76.5787 34.5079C75.7663 35.4631 74.7562 35.9401 73.5505 35.9401C72.2491 35.9401 71.3142 35.4257 70.7458 34.3969H70.7046V40.1243H68.5094V28.401C68.5094 27.2385 68.4816 26.0455 68.4281 24.8218H70.3587L70.4812 26.5451H70.5224C71.2534 25.2467 72.3644 24.5986 73.8563 24.5986C75.0208 24.5986 75.9938 25.1051 76.7743 26.1191C77.5517 27.1343 77.9419 28.469 77.9419 30.1243ZM75.7055 30.2127C75.7055 29.1545 75.4883 28.282 75.0538 27.5954C74.5791 26.8794 73.9438 26.5214 73.1438 26.5214C72.6012 26.5214 72.1101 26.7208 71.6694 27.1139C71.2287 27.5105 70.9414 28.0283 70.8065 28.6695C70.7396 28.9687 70.7046 29.2134 70.7046 29.406V31.2188C70.7046 32.0097 70.925 32.677 71.3636 33.222C71.8043 33.7658 72.3767 34.0389 73.0831 34.0389C73.9099 34.0389 74.5534 33.6876 75.0136 32.9874C75.4749 32.2861 75.7055 31.3616 75.7055 30.2127Z" fill="white"/>
<path d="M90.6475 31.4659C90.6475 32.7485 90.2428 33.792 89.4305 34.5975C88.5378 35.4779 87.295 35.9175 85.698 35.9175C84.2236 35.9175 83.0416 35.6048 82.1469 34.9782L82.6555 32.9649C83.6192 33.6062 84.6767 33.9279 85.8288 33.9279C86.6556 33.9279 87.2991 33.7217 87.7614 33.3116C88.2217 32.9014 88.4513 32.3508 88.4513 31.6642C88.4513 31.0524 88.2618 30.5368 87.8819 30.1188C87.504 29.7007 86.8729 29.3121 85.9915 28.9529C83.5925 27.9683 82.394 26.526 82.394 24.6293C82.394 23.3898 82.8141 22.3735 83.6553 21.5827C84.4934 20.7907 85.6116 20.3953 87.0098 20.3953C88.2567 20.3953 89.2925 20.6343 90.1193 21.1113L89.5705 23.0805C88.7983 22.6182 87.9251 22.3871 86.948 22.3871C86.1758 22.3871 85.5724 22.5967 85.14 23.0137C84.7745 23.3864 84.5912 23.8407 84.5912 24.3789C84.5912 24.9749 84.8002 25.4677 85.2203 25.8552C85.5858 26.2133 86.2499 26.6008 87.2137 27.0188C88.3926 27.5412 89.2585 28.1518 89.8155 28.852C90.3705 29.55 90.6475 30.4235 90.6475 31.4659Z" fill="white"/>
<path d="M97.9053 26.6349H95.4857V31.9136C95.4857 33.2562 95.912 33.9269 96.7666 33.9269C97.1589 33.9269 97.4842 33.8895 97.7416 33.8148L97.8024 35.6491C97.3699 35.827 96.8005 35.9165 96.0952 35.9165C95.2283 35.9165 94.5508 35.6253 94.0617 35.0441C93.5747 34.4617 93.3297 33.4851 93.3297 32.113V26.6326H91.8882V24.8198H93.3297V22.8291L95.4857 22.113V24.8198H97.9053V26.6349Z" fill="white"/>
<path d="M108.823 30.1686C108.823 31.8398 108.388 33.2119 107.521 34.2848C106.612 35.3895 105.405 35.9401 103.901 35.9401C102.451 35.9401 101.297 35.411 100.436 34.3528C99.5754 33.2946 99.145 31.9587 99.145 30.3487C99.145 28.664 99.5878 27.284 100.476 26.211C101.363 25.1369 102.559 24.5999 104.064 24.5999C105.513 24.5999 106.68 25.129 107.56 26.1883C108.402 27.216 108.823 28.5427 108.823 30.1686ZM106.545 30.2468C106.545 29.2441 106.35 28.3841 105.956 27.6669C105.496 26.799 104.838 26.3662 103.985 26.3662C103.103 26.3662 102.433 26.8002 101.972 27.6669C101.578 28.3852 101.383 29.2588 101.383 30.2921C101.383 31.2948 101.578 32.1548 101.972 32.8708C102.447 33.7387 103.11 34.1715 103.966 34.1715C104.804 34.1715 105.462 33.7296 105.936 32.8482C106.341 32.1174 106.545 31.2484 106.545 30.2468Z" fill="white"/>
<path d="M115.958 26.9462C115.741 26.902 115.509 26.8794 115.266 26.8794C114.494 26.8794 113.896 27.2 113.476 27.8424C113.111 28.4089 112.928 29.125 112.928 29.9895V35.6942H110.733L110.754 28.2458C110.754 26.9927 110.726 25.8517 110.672 24.823H112.584L112.664 26.9032H112.725C112.956 26.1882 113.322 25.6127 113.822 25.181C114.311 24.7924 114.84 24.5986 115.409 24.5986C115.612 24.5986 115.795 24.6145 115.958 24.6428V26.9462Z" fill="white"/>
<path d="M125.775 29.7435C125.775 30.1763 125.75 30.5412 125.695 30.8391H119.109C119.135 31.9132 119.453 32.7347 120.065 33.3012C120.62 33.8076 121.338 34.0614 122.219 34.0614C123.194 34.0614 124.084 33.8903 124.884 33.547L125.228 35.2239C124.293 35.6726 123.189 35.8958 121.915 35.8958C120.383 35.8958 119.181 35.3995 118.305 34.4081C117.432 33.4167 116.995 32.0854 116.995 30.4154C116.995 28.7759 117.401 27.4106 118.216 26.3218C119.068 25.1594 120.22 24.5781 121.67 24.5781C123.094 24.5781 124.172 25.1594 124.904 26.3218C125.484 27.2452 125.775 28.3873 125.775 29.7435ZM123.682 29.117C123.696 28.4009 123.553 27.7823 123.256 27.26C122.876 26.5881 122.292 26.2527 121.506 26.2527C120.789 26.2527 120.205 26.5802 119.759 27.2373C119.394 27.7596 119.176 28.3862 119.109 29.1158H123.682V29.117Z" fill="white"/>
</svg>
