<svg width="139" height="46" viewBox="0 0 139 46" fill="none" xmlns="http://www.w3.org/2000/svg">
<path d="M133.852 45.3203H5.14815C2.31795 45.3203 0 42.7696 0 39.6553V5.66498C0 2.55062 2.31795 -6.63452e-05 5.14815 -6.63452e-05H133.852C136.682 -6.63452e-05 139 2.55062 139 5.66498V39.6553C139 42.7696 136.682 45.3203 133.852 45.3203Z" fill="black"/>
<path d="M133.852 0.907758C136.235 0.907758 138.175 3.04207 138.175 5.66498V39.6553C138.175 42.2782 136.235 44.4125 133.852 44.4125H5.14815C2.76456 44.4125 0.82499 42.2782 0.82499 39.6553V5.66498C0.82499 3.04207 2.76456 0.907758 5.14815 0.907758H133.852ZM133.852 -6.63452e-05H5.14815C2.31795 -6.63452e-05 0 2.55062 0 5.66498V39.6553C0 42.7696 2.31795 45.3203 5.14815 45.3203H133.852C136.682 45.3203 139 42.7696 139 39.6553V5.66498C139 2.55062 136.682 -6.63452e-05 133.852 -6.63452e-05Z" fill="#A6A6A6"/>
<path d="M70.1538 24.6455C67.7354 24.6455 65.7598 26.6708 65.7598 29.4651C65.7598 32.2367 67.7354 34.2832 70.1538 34.2832C72.5773 34.2832 74.5529 32.2367 74.5529 29.4651C74.5529 26.6708 72.5773 24.6455 70.1538 24.6455ZM70.1538 32.3854C68.8268 32.3854 67.6852 31.1802 67.6852 29.4651C67.6852 27.7273 68.8268 26.5433 70.1538 26.5433C71.4807 26.5433 72.6275 27.7273 72.6275 29.4651C72.6275 31.1802 71.4807 32.3854 70.1538 32.3854ZM60.5666 24.6455C58.1432 24.6455 56.1727 26.6708 56.1727 29.4651C56.1727 32.2367 58.1432 34.2832 60.5666 34.2832C62.9889 34.2832 64.9606 32.2367 64.9606 29.4651C64.9606 26.6708 62.9889 24.6455 60.5666 24.6455ZM60.5666 32.3854C59.2384 32.3854 58.093 31.1802 58.093 29.4651C58.093 27.7273 59.2384 26.5433 60.5666 26.5433C61.8936 26.5433 63.0352 27.7273 63.0352 29.4651C63.0352 31.1802 61.8936 32.3854 60.5666 32.3854ZM49.1584 26.1227V28.1706H53.6025C53.4725 29.3149 53.125 30.1562 52.5922 30.7425C51.9435 31.4507 50.9332 32.2367 49.1584 32.2367C46.4234 32.2367 44.2818 29.8078 44.2818 26.7982C44.2818 23.7887 46.4234 21.3598 49.1584 21.3598C50.6372 21.3598 51.7131 21.9957 52.5072 22.82L53.8187 21.3768C52.708 20.2098 51.2305 19.3133 49.1584 19.3133C45.4079 19.3133 42.256 22.6713 42.256 26.7982C42.256 30.9252 45.4079 34.2832 49.1584 34.2832C51.1854 34.2832 52.708 33.5524 53.9049 32.1815C55.1315 30.8318 55.5137 28.934 55.5137 27.4016C55.5137 26.9257 55.4777 26.4881 55.4134 26.1227H49.1584ZM95.8083 27.7103C95.4466 26.6325 94.3308 24.6455 92.0579 24.6455C89.8055 24.6455 87.9303 26.5985 87.9303 29.4651C87.9303 32.1645 89.7862 34.2832 92.2741 34.2832C94.2857 34.2832 95.4466 32.9335 95.9241 32.1475L94.4312 31.0527C93.9331 31.8543 93.2548 32.3854 92.2741 32.3854C91.2998 32.3854 90.6009 31.894 90.153 30.9252L96.0104 28.2584L95.8083 27.7103ZM89.8364 29.3149C89.7862 27.4568 91.1479 26.5051 92.1235 26.5051C92.888 26.5051 93.5367 26.9257 93.7529 27.5276L89.8364 29.3149ZM85.0757 33.99H87.0011V19.8274H85.0757V33.99ZM81.9224 25.7191H81.8581C81.4256 25.1554 80.6007 24.6455 79.5556 24.6455C77.3625 24.6455 75.3573 26.7643 75.3573 29.4806C75.3573 32.1815 77.3625 34.2832 79.5556 34.2832C80.6007 34.2832 81.4256 33.7691 81.8581 33.1884H81.9224V33.8796C81.9224 35.7221 81.028 36.7121 79.5852 36.7121C78.4088 36.7121 77.6791 35.7773 77.3779 34.9913L75.7035 35.7603C76.1861 37.0378 77.4642 38.6099 79.5852 38.6099C81.8427 38.6099 83.7475 37.1483 83.7475 33.592V24.9387H81.9224V25.7191ZM79.7203 32.3854C78.3934 32.3854 77.2827 31.1632 77.2827 29.4806C77.2827 27.7825 78.3934 26.5433 79.7203 26.5433C81.028 26.5433 82.0589 27.7825 82.0589 29.4806C82.0589 31.1632 81.028 32.3854 79.7203 32.3854ZM104.823 19.8274H100.218V33.99H102.138V28.6238H104.823C106.955 28.6238 109.047 26.9257 109.047 24.2249C109.047 21.5255 106.95 19.8274 104.823 19.8274ZM104.873 26.6538H102.138V21.7974H104.873C106.307 21.7974 107.125 23.1075 107.125 24.2249C107.125 25.3211 106.307 26.6538 104.873 26.6538ZM116.743 24.6186C115.356 24.6186 113.913 25.2928 113.32 26.7869L115.024 27.5729C115.391 26.7869 116.065 26.532 116.778 26.532C117.774 26.532 118.784 27.1905 118.8 28.3533V28.502C118.452 28.2811 117.709 27.9539 116.793 27.9539C114.958 27.9539 113.088 29.0657 113.088 31.1405C113.088 33.0383 114.591 34.2605 116.281 34.2605C117.573 34.2605 118.286 33.619 118.734 32.8726H118.8V33.9674H120.655V28.5346C120.655 26.0235 118.95 24.6186 116.743 24.6186ZM116.512 32.3797C115.883 32.3797 115.008 32.037 115.008 31.1802C115.008 30.084 116.1 29.6633 117.044 29.6633C117.89 29.6633 118.286 29.8687 118.8 30.1392C118.649 31.4507 117.624 32.3797 116.512 32.3797ZM127.411 24.9288L125.204 31.0683H125.139L122.857 24.9288H120.786L124.214 33.5085L122.258 38.2827H124.265L129.548 24.9288H127.411ZM110.102 33.99H112.028V19.8274H110.102V33.99Z" fill="white"/>
<path d="M10.7442 8.5415C10.4418 8.8899 10.2667 9.43233 10.2667 10.1348V35.1913C10.2667 35.8938 10.4418 36.4362 10.7442 36.7846L10.8189 36.8611L23.5785 22.8259V22.4945L10.8189 8.45936L10.7442 8.5415Z" fill="url(#paint0_linear_51_17)"/>
<path d="M27.827 27.5066L23.5785 22.8258V22.4944L27.8321 17.8137L27.9274 17.8746L32.9649 21.0286C34.4025 21.9237 34.4025 23.3966 32.9649 24.2973L27.9274 27.4457L27.827 27.5066Z" fill="url(#paint1_linear_51_17)"/>
<path d="M27.9275 27.4455L23.5786 22.66L10.7443 36.7844C11.2218 37.3367 12.0004 37.4033 12.8859 36.8509L27.9275 27.4455Z" fill="url(#paint2_linear_51_17)"/>
<path d="M27.9275 17.8746L12.8859 8.46921C12.0004 7.92253 11.2218 7.9891 10.7443 8.54144L23.5786 22.6602L27.9275 17.8746Z" fill="url(#paint3_linear_51_17)"/>
<defs>
<linearGradient id="paint0_linear_51_17" x1="22.4456" y1="35.4522" x2="3.51772" y2="18.2514" gradientUnits="userSpaceOnUse">
<stop stop-color="#00A0FF"/>
<stop offset="0.0066" stop-color="#00A1FF"/>
<stop offset="0.2601" stop-color="#00BEFF"/>
<stop offset="0.5122" stop-color="#00D2FF"/>
<stop offset="0.7604" stop-color="#00DFFF"/>
<stop offset="1" stop-color="#00E3FF"/>
</linearGradient>
<linearGradient id="paint1_linear_51_17" x1="34.8369" y1="22.6586" x2="9.92303" y2="22.6586" gradientUnits="userSpaceOnUse">
<stop stop-color="#FFE000"/>
<stop offset="0.4087" stop-color="#FFBD00"/>
<stop offset="0.7754" stop-color="#FFA500"/>
<stop offset="1" stop-color="#FF9C00"/>
</linearGradient>
<linearGradient id="paint2_linear_51_17" x1="25.5627" y1="20.0585" x2="-0.105105" y2="-3.2673" gradientUnits="userSpaceOnUse">
<stop stop-color="#FF3A44"/>
<stop offset="1" stop-color="#C31162"/>
</linearGradient>
<linearGradient id="paint3_linear_51_17" x1="7.51359" y1="45.1207" x2="18.9754" y2="34.7048" gradientUnits="userSpaceOnUse">
<stop stop-color="#32A071"/>
<stop offset="0.0685" stop-color="#2DA771"/>
<stop offset="0.4762" stop-color="#15CF74"/>
<stop offset="0.8009" stop-color="#06E775"/>
<stop offset="1" stop-color="#00F076"/>
</linearGradient>
</defs>
</svg>
