<svg width="23" height="27" viewBox="0 0 23 27" fill="none" xmlns="http://www.w3.org/2000/svg">
<path d="M12.25 8V0.5H4.75004C4.087 0.5 3.45112 0.763392 2.98228 1.23223C2.51343 1.70107 2.25004 2.33696 2.25004 3V9.62875C3.67815 8.80338 5.33853 8.47182 6.97411 8.6854C8.60968 8.89899 10.1292 9.6458 11.2975 10.8102C12.4658 11.9747 13.2176 13.4917 13.4366 15.1266C13.6555 16.7615 13.3295 18.4229 12.5088 19.8538L16.9213 24.2663C17.2688 24.6125 17.475 25.0487 17.54 25.5H19.75C20.4131 25.5 21.049 25.2366 21.5178 24.7678C21.9866 24.2989 22.25 23.663 22.25 23V10.5H14.75C14.087 10.5 13.4511 10.2366 12.9823 9.76777C12.5134 9.29893 12.25 8.66304 12.25 8ZM14.7125 26.475C14.7984 26.5671 14.9019 26.641 15.0169 26.6922C15.1319 26.7435 15.256 26.771 15.3819 26.7732C15.5078 26.7755 15.6328 26.7523 15.7495 26.7052C15.8663 26.658 15.9723 26.5878 16.0613 26.4988C16.1504 26.4098 16.2205 26.3037 16.2677 26.187C16.3148 26.0703 16.338 25.9452 16.3358 25.8193C16.3336 25.6935 16.306 25.5693 16.2548 25.4543C16.2035 25.3393 16.1297 25.2358 16.0375 25.15L10.8975 20.0088C11.7755 18.9049 12.2524 17.5355 12.25 16.125C12.252 14.4885 11.6099 12.917 10.4625 11.75C9.88139 11.1556 9.18718 10.6835 8.42079 10.3615C7.6544 10.0395 6.83133 9.87407 6.00004 9.875C4.64741 9.87301 3.33096 10.3118 2.25004 11.125C0.934544 12.102 0.0553698 13.5566 -0.198155 15.1755C-0.451681 16.7944 -0.0592761 18.4481 0.894557 19.7806C1.84839 21.113 3.28735 22.0175 4.90156 22.2994C6.51578 22.5812 8.17612 22.2178 9.52504 21.2875L14.7125 26.475ZM6.00004 11.75C6.57458 11.75 7.14348 11.8632 7.67428 12.083C8.20508 12.3029 8.68738 12.6252 9.09363 13.0314C9.49989 13.4377 9.82215 13.92 10.042 14.4508C10.2619 14.9816 10.375 15.5505 10.375 16.125C10.375 16.6995 10.2619 17.2684 10.042 17.7992C9.82215 18.33 9.49989 18.8123 9.09363 19.2186C8.68738 19.6248 8.20508 19.9471 7.67428 20.167C7.14348 20.3868 6.57458 20.5 6.00004 20.5C4.83972 20.5 3.72692 20.0391 2.90645 19.2186C2.08598 18.3981 1.62504 17.2853 1.62504 16.125C1.62504 14.9647 2.08598 13.8519 2.90645 13.0314C3.72692 12.2109 4.83972 11.75 6.00004 11.75ZM14.125 8V1.125L21.625 8.625H14.75C14.5843 8.625 14.4253 8.55915 14.3081 8.44194C14.1909 8.32473 14.125 8.16576 14.125 8Z" fill="#FF5600"/>
</svg>
