<svg width="26" height="23" viewBox="0 0 26 23" fill="none" xmlns="http://www.w3.org/2000/svg">
<path d="M22.295 5.29722C22.0681 4.89691 21.7424 4.56406 21.3501 4.33173C20.9579 4.09941 20.5127 3.9757 20.059 3.97291H16.9V1.3243C16.9 0.973077 16.763 0.636235 16.5192 0.38788C16.2754 0.139525 15.9448 0 15.6 0H2.6C1.91044 0 1.24912 0.279049 0.761522 0.77576C0.273928 1.27247 0 1.94615 0 2.64861V15.8917C0.000467665 16.3561 0.120826 16.8123 0.349 17.2144C0.577174 17.6165 0.905141 17.9505 1.3 18.1827C1.25345 19.412 1.68819 20.6098 2.50857 21.5126C3.32894 22.4153 4.46776 22.9491 5.6745 22.9965C6.88123 23.044 8.05704 22.6011 8.94324 21.7654C9.82944 20.9297 10.3535 19.7696 10.4 18.5403H14.43C14.5738 19.6483 15.1079 20.6654 15.933 21.4021C16.758 22.1388 17.8178 22.545 18.915 22.545C20.0122 22.545 21.072 22.1388 21.897 21.4021C22.7221 20.6654 23.2562 19.6483 23.4 18.5403C24.0896 18.5403 24.7509 18.2612 25.2385 17.7645C25.7261 17.2678 26 16.5941 26 15.8917V11.9187C25.998 11.6771 25.9353 11.4401 25.818 11.2301L22.295 5.29722ZM16.9 6.62152H20.059L22.399 10.5944H16.9V6.62152ZM5.85 19.8646C5.46433 19.8646 5.08731 19.7481 4.76664 19.5298C4.44596 19.3115 4.19603 19.0013 4.04843 18.6383C3.90084 18.2753 3.86223 17.8759 3.93747 17.4906C4.01271 17.1052 4.19843 16.7513 4.47114 16.4735C4.74385 16.1957 5.09131 16.0065 5.46957 15.9298C5.84784 15.8532 6.23992 15.8925 6.59623 16.0429C6.95255 16.1932 7.2571 16.4478 7.47137 16.7745C7.68563 17.1012 7.8 17.4852 7.8 17.8781C7.8 18.405 7.59455 18.9102 7.22886 19.2827C6.86316 19.6553 6.36717 19.8646 5.85 19.8646ZM18.85 19.8646C18.4643 19.8646 18.0873 19.7481 17.7666 19.5298C17.446 19.3115 17.196 19.0013 17.0484 18.6383C16.9008 18.2753 16.8622 17.8759 16.9375 17.4906C17.0127 17.1052 17.1984 16.7513 17.4711 16.4735C17.7439 16.1957 18.0913 16.0065 18.4696 15.9298C18.8478 15.8532 19.2399 15.8925 19.5962 16.0429C19.9525 16.1932 20.2571 16.4478 20.4714 16.7745C20.6856 17.1012 20.8 17.4852 20.8 17.8781C20.8 18.405 20.5946 18.9102 20.2289 19.2827C19.8632 19.6553 19.3672 19.8646 18.85 19.8646Z" fill="#FF6500"/>
</svg>
