<svg width="44" height="35" viewBox="0 0 44 35" fill="none" xmlns="http://www.w3.org/2000/svg">
<path d="M22.1032 10.7542C20.5397 10.7542 19.0402 11.4541 17.9346 12.7C16.8291 13.9459 16.208 15.6357 16.208 17.3977C16.208 19.1597 16.8291 20.8495 17.9346 22.0954C19.0402 23.3413 20.5397 24.0413 22.1032 24.0413C23.6667 24.0413 25.1662 23.3413 26.2718 22.0954C27.3773 20.8495 27.9984 19.1597 27.9984 17.3977C27.9984 15.6357 27.3773 13.9459 26.2718 12.7C25.1662 11.4541 23.6667 10.7542 22.1032 10.7542ZM22.1032 28.4703C19.4973 28.4703 16.9982 27.3037 15.1556 25.2272C13.313 23.1507 12.2778 20.3343 12.2778 17.3977C12.2778 14.4611 13.313 11.6447 15.1556 9.5682C16.9982 7.49169 19.4973 6.32511 22.1032 6.32511C24.7091 6.32511 27.2082 7.49169 29.0508 9.5682C30.8934 11.6447 31.9286 14.4611 31.9286 17.3977C31.9286 20.3343 30.8934 23.1507 29.0508 25.2272C27.2082 27.3037 24.7091 28.4703 22.1032 28.4703M22.1032 0.788818C12.2778 0.788818 3.8869 7.67597 0.487305 17.3977C3.8869 27.1194 12.2778 34.0066 22.1032 34.0066C31.9286 34.0066 40.3195 27.1194 43.7191 17.3977C40.3195 7.67597 31.9286 0.788818 22.1032 0.788818Z" fill="#FF5600"/>
</svg>
