<svg width="139" height="46" viewBox="0 0 139 46" fill="none" xmlns="http://www.w3.org/2000/svg">
<path d="M138.228 40.0937C138.228 42.5088 136.458 44.4652 134.269 44.4652H4.73547C2.54782 44.4652 0.772095 42.5088 0.772095 40.0937V5.23221C0.772095 2.81817 2.54782 0.85498 4.73547 0.85498H134.268C136.458 0.85498 138.227 2.81817 138.227 5.23221L138.228 40.0937Z" fill="black"/>
<path d="M133.852 0.907749C136.235 0.907749 138.175 3.04206 138.175 5.66497V39.6553C138.175 42.2782 136.235 44.4125 133.852 44.4125H5.14815C2.76456 44.4125 0.82499 42.2782 0.82499 39.6553V5.66497C0.82499 3.04206 2.76456 0.907749 5.14815 0.907749H133.852ZM133.852 -7.57935e-05H5.14815C2.31795 -7.57935e-05 0 2.55061 0 5.66497V39.6553C0 42.7696 2.31795 45.3203 5.14815 45.3203H133.852C136.682 45.3203 139 42.7696 139 39.6553V5.66497C139 2.55061 136.682 -7.57935e-05 133.852 -7.57935e-05Z" fill="#A6A6A6"/>
<path d="M31.0207 22.4155C30.9908 18.7638 33.7379 16.9872 33.8635 16.9045C32.3077 14.4085 29.8963 14.0675 29.0489 14.0403C27.0236 13.8057 25.0591 15.3738 24.0274 15.3738C22.9751 15.3738 21.3864 14.0629 19.6741 14.1015C17.4707 14.1389 15.4094 15.5426 14.2789 17.7226C11.9457 22.1674 13.6858 28.6992 15.9211 32.2919C17.0393 34.0515 18.3459 36.0161 20.0561 35.947C21.7293 35.8711 22.3543 34.7732 24.3734 34.7732C26.3739 34.7732 26.9608 35.947 28.705 35.9028C30.5007 35.8711 31.6312 34.1353 32.7103 32.3599C34.0025 30.3432 34.5214 28.357 34.542 28.255C34.4998 28.2392 31.0546 26.7923 31.0207 22.4155Z" fill="white"/>
<path d="M27.7258 11.6768C28.6257 10.4384 29.2415 8.75366 29.0705 7.04395C27.7681 7.10739 26.1392 8.03533 25.2012 9.24652C24.3713 10.3138 23.63 12.0632 23.8215 13.7083C25.2846 13.8284 26.7868 12.8959 27.7258 11.6768Z" fill="white"/>
<path d="M55.2344 28.2988H52.8961L51.6152 23.8699H47.1631L45.943 28.2988H43.6665L48.0774 13.2207H50.8018L55.2344 28.2988ZM51.2291 22.0117L50.0708 18.0745C49.9483 17.6723 49.7187 16.7251 49.3799 15.2341H49.3387C49.2038 15.8753 48.9866 16.8225 48.688 18.0745L47.5503 22.0117H51.2291Z" fill="white"/>
<path d="M66.5778 22.7291C66.5778 24.5781 66.1237 26.0397 65.2156 27.1127C64.4022 28.0678 63.3921 28.5448 62.1864 28.5448C60.885 28.5448 59.9501 28.0304 59.3807 27.0016H59.3395V32.729H57.1443V21.0057C57.1443 19.8433 57.1165 18.6502 57.063 17.4266H58.9935L59.1161 19.1499H59.1573C59.8893 17.8515 61.0003 17.2034 62.4912 17.2034C63.6567 17.2034 64.6297 17.7098 65.4081 18.7239C66.1886 19.739 66.5778 21.0737 66.5778 22.7291ZM64.3414 22.8174C64.3414 21.7592 64.1252 20.8868 63.6907 20.2002C63.2161 19.4841 62.5787 19.1261 61.7797 19.1261C61.2381 19.1261 60.746 19.3255 60.3063 19.7187C59.8656 20.1152 59.5773 20.633 59.4425 21.2743C59.3745 21.5734 59.3405 21.8181 59.3405 22.0107V23.8235C59.3405 24.6144 59.5609 25.2817 60.0016 25.8267C60.4422 26.3717 61.0147 26.6436 61.719 26.6436C62.5458 26.6436 63.1893 26.2924 63.6495 25.5922C64.1108 24.8908 64.3414 23.9663 64.3414 22.8174Z" fill="white"/>
<path d="M77.9419 22.7291C77.9419 24.5781 77.4878 26.0397 76.5787 27.1127C75.7663 28.0678 74.7562 28.5448 73.5505 28.5448C72.2491 28.5448 71.3142 28.0304 70.7458 27.0016H70.7046V32.729H68.5094V21.0057C68.5094 19.8433 68.4816 18.6502 68.4281 17.4266H70.3587L70.4812 19.1499H70.5224C71.2534 17.8515 72.3644 17.2034 73.8563 17.2034C75.0208 17.2034 75.9938 17.7098 76.7743 18.7239C77.5517 19.739 77.9419 21.0737 77.9419 22.7291ZM75.7055 22.8174C75.7055 21.7592 75.4883 20.8868 75.0538 20.2002C74.5791 19.4841 73.9438 19.1261 73.1438 19.1261C72.6012 19.1261 72.1101 19.3255 71.6694 19.7187C71.2287 20.1152 70.9414 20.633 70.8065 21.2743C70.7396 21.5734 70.7046 21.8181 70.7046 22.0107V23.8235C70.7046 24.6144 70.925 25.2817 71.3636 25.8267C71.8043 26.3706 72.3767 26.6436 73.0831 26.6436C73.9099 26.6436 74.5534 26.2924 75.0136 25.5922C75.4749 24.8908 75.7055 23.9663 75.7055 22.8174Z" fill="white"/>
<path d="M90.6475 24.0706C90.6475 25.3532 90.2428 26.3967 89.4305 27.2023C88.5378 28.0826 87.295 28.5222 85.698 28.5222C84.2236 28.5222 83.0416 28.2095 82.1469 27.583L82.6555 25.5696C83.6192 26.2109 84.6767 26.5327 85.8288 26.5327C86.6556 26.5327 87.2991 26.3265 87.7614 25.9163C88.2217 25.5062 88.4513 24.9555 88.4513 24.2689C88.4513 23.6571 88.2618 23.1416 87.8819 22.7235C87.504 22.3054 86.8729 21.9168 85.9915 21.5576C83.5925 20.573 82.394 19.1307 82.394 17.2341C82.394 15.9945 82.8141 14.9782 83.6553 14.1874C84.4934 13.3954 85.6116 13 87.0098 13C88.2567 13 89.2925 13.2391 90.1193 13.7161L89.5705 15.6852C88.7983 15.223 87.9251 14.9918 86.948 14.9918C86.1758 14.9918 85.5724 15.2014 85.14 15.6184C84.7745 15.9911 84.5912 16.4455 84.5912 16.9837C84.5912 17.5796 84.8002 18.0725 85.2203 18.46C85.5858 18.818 86.2499 19.2055 87.2137 19.6236C88.3926 20.1459 89.2585 20.7566 89.8155 21.4568C90.3705 22.1547 90.6475 23.0283 90.6475 24.0706Z" fill="white"/>
<path d="M97.9053 19.2396H95.4857V24.5183C95.4857 25.8609 95.912 26.5317 96.7666 26.5317C97.1589 26.5317 97.4842 26.4943 97.7416 26.4195L97.8024 28.2538C97.3699 28.4317 96.8005 28.5212 96.0952 28.5212C95.2283 28.5212 94.5508 28.2301 94.0617 27.6488C93.5747 27.0664 93.3297 26.0898 93.3297 24.7177V19.2374H91.8882V17.4245H93.3297V15.4338L95.4857 14.7178V17.4245H97.9053V19.2396Z" fill="white"/>
<path d="M108.823 22.7733C108.823 24.4445 108.388 25.8166 107.521 26.8896C106.612 27.9942 105.405 28.5449 103.901 28.5449C102.451 28.5449 101.297 28.0158 100.436 26.9575C99.5754 25.8993 99.145 24.5635 99.145 22.9535C99.145 21.2687 99.5878 19.8887 100.476 18.8157C101.363 17.7416 102.559 17.2046 104.064 17.2046C105.513 17.2046 106.68 17.7337 107.56 18.7931C108.402 19.8207 108.823 21.1475 108.823 22.7733ZM106.545 22.8515C106.545 21.8488 106.35 20.9888 105.956 20.2716C105.496 19.4038 104.838 18.971 103.985 18.971C103.103 18.971 102.433 19.4049 101.972 20.2716C101.578 20.99 101.383 21.8635 101.383 22.8968C101.383 23.8995 101.578 24.7595 101.972 25.4756C102.447 26.3434 103.11 26.7763 103.966 26.7763C104.804 26.7763 105.462 26.3344 105.936 25.4529C106.341 24.7221 106.545 23.8531 106.545 22.8515Z" fill="white"/>
<path d="M115.958 19.551C115.741 19.5068 115.509 19.4841 115.266 19.4841C114.494 19.4841 113.896 19.8048 113.476 20.4472C113.111 21.0137 112.928 21.7297 112.928 22.5942V28.2989H110.733L110.754 20.8505C110.754 19.5974 110.726 18.4565 110.672 17.4277H112.584L112.664 19.5079H112.725C112.956 18.793 113.322 18.2174 113.822 17.7857C114.311 17.3971 114.84 17.2034 115.409 17.2034C115.612 17.2034 115.795 17.2192 115.958 17.2476V19.551Z" fill="white"/>
<path d="M125.775 22.3483C125.775 22.7811 125.75 23.1459 125.695 23.4439H119.109C119.135 24.518 119.453 25.3394 120.065 25.9059C120.62 26.4124 121.338 26.6661 122.219 26.6661C123.194 26.6661 124.084 26.4951 124.884 26.1518L125.228 27.8286C124.293 28.2773 123.189 28.5005 121.915 28.5005C120.383 28.5005 119.181 28.0042 118.305 27.0128C117.432 26.0215 116.995 24.6902 116.995 23.0201C116.995 21.3807 117.401 20.0154 118.216 18.9266C119.068 17.7641 120.22 17.1829 121.67 17.1829C123.094 17.1829 124.172 17.7641 124.904 18.9266C125.484 19.85 125.775 20.992 125.775 22.3483ZM123.682 21.7217C123.696 21.0056 123.553 20.387 123.256 19.8647C122.876 19.1928 122.292 18.8574 121.506 18.8574C120.789 18.8574 120.205 19.1849 119.759 19.842C119.394 20.3644 119.176 20.9909 119.109 21.7206H123.682V21.7217Z" fill="white"/>
</svg>
