<svg width="26" height="26" viewBox="0 0 26 26" fill="none" xmlns="http://www.w3.org/2000/svg">
<path d="M12.9173 25.1698C20.0513 25.1698 25.8345 19.5354 25.8345 12.5849C25.8345 5.63445 20.0513 0 12.9173 0C5.78326 0 0 5.63445 0 12.5849C0 19.5354 5.78326 25.1698 12.9173 25.1698Z" fill="white"/>
<path d="M16.6259 7.8921V5.61563C16.6259 5.61563 14.2376 5.59326 14.0769 5.59326C12.9976 5.59326 11.4475 6.79023 11.4475 8.1494V10.5881H9.2085V13.1722H11.413V19.5765H14.0252V13.1386H16.3331L16.6259 10.616H14.0539C14.0539 10.616 14.0539 9.0667 14.0539 8.76466C14.0539 8.31719 14.3984 7.88651 14.9151 7.88651C15.2595 7.87532 16.6259 7.8921 16.6259 7.8921Z" fill="#3B5999"/>
</svg>
