<svg width="139" height="46" viewBox="0 0 139 46" fill="none" xmlns="http://www.w3.org/2000/svg">
<path d="M133.852 45.3203H5.14815C2.31795 45.3203 0 42.7696 0 39.6553V5.66498C0 2.55062 2.31795 -6.63452e-05 5.14815 -6.63452e-05H133.852C136.682 -6.63452e-05 139 2.55062 139 5.66498V39.6553C139 42.7696 136.682 45.3203 133.852 45.3203Z" fill="black"/>
<path d="M133.852 0.907758C136.235 0.907758 138.175 3.04207 138.175 5.66498V39.6553C138.175 42.2782 136.235 44.4125 133.852 44.4125H5.14815C2.76456 44.4125 0.82499 42.2782 0.82499 39.6553V5.66498C0.82499 3.04207 2.76456 0.907758 5.14815 0.907758H133.852ZM133.852 -6.63452e-05H5.14815C2.31795 -6.63452e-05 0 2.55062 0 5.66498V39.6553C0 42.7696 2.31795 45.3203 5.14815 45.3203H133.852C136.682 45.3203 139 42.7696 139 39.6553V5.66498C139 2.55062 136.682 -6.63452e-05 133.852 -6.63452e-05Z" fill="#A6A6A6"/>
<path d="M70.1538 18.0357C67.7354 18.0357 65.7598 20.0609 65.7598 22.8552C65.7598 25.6268 67.7354 27.6733 70.1538 27.6733C72.5773 27.6733 74.5529 25.6268 74.5529 22.8552C74.5529 20.0609 72.5773 18.0357 70.1538 18.0357ZM70.1538 25.7755C68.8268 25.7755 67.6852 24.5703 67.6852 22.8552C67.6852 21.1174 68.8268 19.9335 70.1538 19.9335C71.4807 19.9335 72.6275 21.1174 72.6275 22.8552C72.6275 24.5703 71.4807 25.7755 70.1538 25.7755V25.7755ZM60.5666 18.0357C58.1432 18.0357 56.1727 20.0609 56.1727 22.8552C56.1727 25.6268 58.1432 27.6733 60.5666 27.6733C62.9889 27.6733 64.9606 25.6268 64.9606 22.8552C64.9606 20.0609 62.9889 18.0357 60.5666 18.0357ZM60.5666 25.7755C59.2384 25.7755 58.093 24.5703 58.093 22.8552C58.093 21.1174 59.2384 19.9335 60.5666 19.9335C61.8936 19.9335 63.0352 21.1174 63.0352 22.8552C63.0352 24.5703 61.8936 25.7755 60.5666 25.7755ZM49.1584 19.5128V21.5607H53.6025C53.4725 22.7051 53.125 23.5463 52.5922 24.1327C51.9435 24.8408 50.9332 25.6268 49.1584 25.6268C46.4234 25.6268 44.2818 23.1979 44.2818 20.1884C44.2818 17.1788 46.4234 14.7499 49.1584 14.7499C50.6372 14.7499 51.7131 15.3858 52.5072 16.2101L53.8187 14.7669C52.708 13.5999 51.2305 12.7034 49.1584 12.7034C45.4079 12.7034 42.256 16.0614 42.256 20.1884C42.256 24.3154 45.4079 27.6733 49.1584 27.6733C51.1854 27.6733 52.708 26.9425 53.9049 25.5716C55.1315 24.2219 55.5137 22.3241 55.5137 20.7917C55.5137 20.3158 55.4777 19.8782 55.4134 19.5128H49.1584ZM95.8083 21.1005C95.4466 20.0227 94.3308 18.0357 92.0579 18.0357C89.8055 18.0357 87.9303 19.9887 87.9303 22.8552C87.9303 25.5546 89.7862 27.6733 92.2741 27.6733C94.2857 27.6733 95.4466 26.3236 95.9241 25.5376L94.4312 24.4428C93.9331 25.2444 93.2548 25.7755 92.2741 25.7755C91.2998 25.7755 90.6009 25.2841 90.153 24.3154L96.0103 21.6485L95.8083 21.1005V21.1005ZM89.8364 22.7051C89.7862 20.8469 91.1479 19.8952 92.1235 19.8952C92.888 19.8952 93.5367 20.3158 93.7529 20.9178L89.8364 22.7051V22.7051ZM85.0757 27.3802H87.0011V13.2175H85.0757V27.3802ZM81.9224 19.1092H81.8581C81.4256 18.5455 80.6007 18.0357 79.5556 18.0357C77.3625 18.0357 75.3573 20.1544 75.3573 22.8708C75.3573 25.5716 77.3625 27.6733 79.5556 27.6733C80.6007 27.6733 81.4256 27.1592 81.8581 26.5786H81.9224V27.2697C81.9224 29.1122 81.028 30.1022 79.5852 30.1022C78.4088 30.1022 77.6791 29.1675 77.3779 28.3815L75.7035 29.1505C76.1861 30.4279 77.4642 32 79.5852 32C81.8426 32 83.7475 30.5384 83.7475 26.9822V18.3288H81.9224V19.1092V19.1092ZM79.7203 25.7755C78.3934 25.7755 77.2827 24.5533 77.2827 22.8708C77.2827 21.1727 78.3934 19.9335 79.7203 19.9335C81.028 19.9335 82.0589 21.1727 82.0589 22.8708C82.0589 24.5533 81.028 25.7755 79.7203 25.7755V25.7755ZM104.823 13.2175H100.218V27.3802H102.138V22.0139H104.823C106.955 22.0139 109.047 20.3158 109.047 17.615C109.047 14.9156 106.95 13.2175 104.823 13.2175V13.2175ZM104.873 20.0439H102.138V15.1876H104.873C106.307 15.1876 107.125 16.4976 107.125 17.615C107.125 18.7112 106.307 20.0439 104.873 20.0439ZM116.743 18.0088C115.356 18.0088 113.913 18.6829 113.32 20.177L115.024 20.9631C115.391 20.177 116.065 19.9221 116.778 19.9221C117.774 19.9221 118.784 20.5807 118.8 21.7434V21.8921C118.452 21.6712 117.709 21.344 116.793 21.344C114.958 21.344 113.088 22.4558 113.088 24.5306C113.088 26.4284 114.591 27.6507 116.281 27.6507C117.573 27.6507 118.286 27.0091 118.734 26.2627H118.8V27.3575H120.655V21.9247C120.655 19.4137 118.95 18.0088 116.743 18.0088ZM116.512 25.7699C115.883 25.7699 115.008 25.4271 115.008 24.5703C115.008 23.4741 116.1 23.0535 117.044 23.0535C117.89 23.0535 118.286 23.2588 118.8 23.5293C118.649 24.8408 117.624 25.7699 116.512 25.7699V25.7699ZM127.411 18.3189L125.204 24.4584H125.139L122.857 18.3189H120.786L124.214 26.8986L122.258 31.6728H124.265L129.548 18.3189H127.411V18.3189ZM110.102 27.3802H112.028V13.2175H110.102V27.3802Z" fill="white"/>
<path d="M10.7442 8.5415C10.4418 8.8899 10.2667 9.43233 10.2667 10.1348V35.1913C10.2667 35.8938 10.4418 36.4362 10.7442 36.7846L10.8189 36.8611L23.5785 22.8259V22.4945L10.8189 8.45936L10.7442 8.5415Z" fill="url(#paint0_linear_51_17)"/>
<path d="M27.827 27.5066L23.5785 22.8258V22.4944L27.8321 17.8137L27.9274 17.8746L32.9649 21.0286C34.4025 21.9237 34.4025 23.3966 32.9649 24.2973L27.9274 27.4457L27.827 27.5066Z" fill="url(#paint1_linear_51_17)"/>
<path d="M27.9275 27.4455L23.5786 22.66L10.7443 36.7844C11.2218 37.3367 12.0004 37.4033 12.8859 36.8509L27.9275 27.4455Z" fill="url(#paint2_linear_51_17)"/>
<path d="M27.9275 17.8746L12.8859 8.46921C12.0004 7.92253 11.2218 7.9891 10.7443 8.54144L23.5786 22.6602L27.9275 17.8746Z" fill="url(#paint3_linear_51_17)"/>
<defs>
<linearGradient id="paint0_linear_51_17" x1="22.4456" y1="35.4522" x2="3.51772" y2="18.2514" gradientUnits="userSpaceOnUse">
<stop stop-color="#00A0FF"/>
<stop offset="0.0066" stop-color="#00A1FF"/>
<stop offset="0.2601" stop-color="#00BEFF"/>
<stop offset="0.5122" stop-color="#00D2FF"/>
<stop offset="0.7604" stop-color="#00DFFF"/>
<stop offset="1" stop-color="#00E3FF"/>
</linearGradient>
<linearGradient id="paint1_linear_51_17" x1="34.8369" y1="22.6586" x2="9.92303" y2="22.6586" gradientUnits="userSpaceOnUse">
<stop stop-color="#FFE000"/>
<stop offset="0.4087" stop-color="#FFBD00"/>
<stop offset="0.7754" stop-color="#FFA500"/>
<stop offset="1" stop-color="#FF9C00"/>
</linearGradient>
<linearGradient id="paint2_linear_51_17" x1="25.5627" y1="20.0585" x2="-0.105105" y2="-3.2673" gradientUnits="userSpaceOnUse">
<stop stop-color="#FF3A44"/>
<stop offset="1" stop-color="#C31162"/>
</linearGradient>
<linearGradient id="paint3_linear_51_17" x1="7.51359" y1="45.1207" x2="18.9754" y2="34.7048" gradientUnits="userSpaceOnUse">
<stop stop-color="#32A071"/>
<stop offset="0.0685" stop-color="#2DA771"/>
<stop offset="0.4762" stop-color="#15CF74"/>
<stop offset="0.8009" stop-color="#06E775"/>
<stop offset="1" stop-color="#00F076"/>
</linearGradient>
</defs>
</svg>
