<svg width="26" height="26" viewBox="0 0 26 26" fill="none" xmlns="http://www.w3.org/2000/svg">
<path d="M12.9173 25.1698C20.0513 25.1698 25.8345 19.5354 25.8345 12.5849C25.8345 5.63445 20.0513 0 12.9173 0C5.78326 0 0 5.63445 0 12.5849C0 19.5354 5.78326 25.1698 12.9173 25.1698Z" fill="white"/>
<path d="M17.4871 7.71313H8.34738C6.91213 7.71313 5.74097 8.85417 5.74097 10.2525V14.9117C5.74097 16.31 6.91213 17.4511 8.34738 17.4511H17.4871C18.9223 17.4511 20.0935 16.31 20.0935 14.9117V10.2525C20.0935 8.85976 18.9223 7.71313 17.4871 7.71313ZM13.3191 13.9608L11.0916 15.3032V12.6185V9.93367L13.3191 11.2761L15.5466 12.6185L13.3191 13.9608Z" fill="#3B5999"/>
</svg>
